<svg width="16" height="16" viewBox="0 0 16 16" fill="none" xmlns="http://www.w3.org/2000/svg">
<path d="M9.3325 11.8322H1.83325M9.3325 11.8322C9.3325 13.2128 10.4517 14.332 11.8322 14.332C13.2128 14.332 14.332 13.2128 14.332 11.8322C14.332 10.4517 13.2128 9.3325 11.8322 9.3325C10.4517 9.3325 9.3325 10.4517 9.3325 11.8322ZM13.4987 3.49975H5.9995M5.9995 3.49975C5.9995 4.88032 4.88032 5.9995 3.49975 5.9995C2.11918 5.9995 1 4.88032 1 3.49975C1 2.11918 2.11918 1 3.49975 1C4.88032 1 5.9995 2.11918 5.9995 3.49975Z" stroke="currentColor" stroke-width="2" stroke-linecap="round"/>
</svg>
